<svg width="32" height="32" viewBox="0 0 32 32" fill="none" xmlns="http://www.w3.org/2000/svg">
<path d="M16.8202 15.1814C14.5467 12.9079 13.7342 9.11895 16.5767 6.27645L20.0362 2.81695C22.8797 -0.0265511 26.6677 0.786449 28.9412 3.05945C31.2137 5.33145 32.0267 9.12045 29.1832 11.9639L25.7237 15.4234C22.8807 18.2664 19.0922 17.4534 16.8202 15.1814ZM26.6537 5.34695C25.8047 4.49795 23.9357 3.49095 22.3232 5.10445L18.8642 8.56345C17.2507 10.1769 18.2577 12.0449 19.1067 12.8944C19.9557 13.7434 21.8242 14.7494 23.4367 13.1364L26.8957 9.67645C28.5092 8.06445 27.5027 6.19695 26.6537 5.34695Z" fill="url(#paint0_linear_37_802)"/>
<path d="M3.06101 28.9405C0.787506 26.6675 -0.0264943 22.8795 2.81751 20.0355L6.27551 16.5775C9.11951 13.7335 12.908 14.547 15.1805 16.82C17.453 19.092 18.2665 22.8805 15.4225 25.7245L11.9645 29.1825C9.12051 32.0265 5.33251 31.2125 3.06101 28.9405ZM12.8935 19.1075C12.0445 18.2585 10.1755 17.251 8.56251 18.8645L5.10451 22.323C3.49101 23.9365 4.49801 25.804 5.34751 26.6535C6.19651 27.5025 8.06451 28.5095 9.67701 26.896L13.1355 23.4375C14.749 21.824 13.743 19.957 12.8935 19.1075Z" fill="url(#paint1_linear_37_802)"/>
<path d="M10.7402 21.2605C10.0172 20.5375 9.94571 19.441 10.5772 18.81L18.8097 10.5775C19.4422 9.94502 20.5372 10.0185 21.2597 10.7405C21.9807 11.462 22.0552 12.5595 21.4232 13.191L13.1907 21.4245C12.5592 22.055 11.4617 21.9825 10.7402 21.2605Z" fill="url(#paint2_linear_37_802)"/>
<defs>
<linearGradient id="paint0_linear_37_802" x1="14.7595" y1="9.12043" x2="31.0001" y2="9.12043" gradientUnits="userSpaceOnUse">
<stop stop-color="#707B7D"/>
<stop offset="0.0993" stop-color="#939C9F"/>
<stop offset="0.205" stop-color="#B2B9BC"/>
<stop offset="0.2949" stop-color="#C5CBCE"/>
<stop offset="0.3576" stop-color="#CCD1D4"/>
<stop offset="1" stop-color="#707B7D"/>
</linearGradient>
<linearGradient id="paint1_linear_37_802" x1="4.54665" y1="18.3061" x2="13.6937" y2="27.4531" gradientUnits="userSpaceOnUse">
<stop stop-color="#707B7D"/>
<stop offset="0.0993" stop-color="#939C9F"/>
<stop offset="0.205" stop-color="#B2B9BC"/>
<stop offset="0.2949" stop-color="#C5CBCE"/>
<stop offset="0.3576" stop-color="#CCD1D4"/>
<stop offset="1" stop-color="#707B7D"/>
</linearGradient>
<linearGradient id="paint2_linear_37_802" x1="14.6935" y1="14.6939" x2="17.3071" y2="17.3076" gradientUnits="userSpaceOnUse">
<stop stop-color="#707B7D"/>
<stop offset="0.0808" stop-color="#939C9F"/>
<stop offset="0.1668" stop-color="#B2B9BC"/>
<stop offset="0.2399" stop-color="#C5CBCE"/>
<stop offset="0.2909" stop-color="#CCD1D4"/>
<stop offset="0.7515" stop-color="#707B7D"/>
</linearGradient>
</defs>
</svg>
