<svg width="32" height="32" viewBox="0 0 32 32" fill="none" xmlns="http://www.w3.org/2000/svg">
<g opacity="0.2">
<path d="M28.2186 11.2331C25.3916 8.65056 8.63456 15.3941 1.93956 19.4381C1.75806 20.2891 1.57506 21.1286 1.37256 21.9491C4.29706 24.6201 7.48606 27.8466 10.4091 30.5181C20.6621 24.7431 28.5586 14.6086 28.5586 14.6086C28.4186 13.4651 28.3886 12.3971 28.2186 11.2331Z" fill="#529320"/>
<path d="M10.4516 29.752C6.89507 26.4005 1.49707 21.4375 1.49707 21.4375C1.49707 21.4375 7.77257 27.469 10.4326 30.094C21.5741 23.5665 28.4551 13.9415 28.4551 13.9415C28.4551 13.9415 19.9141 24.755 10.4516 29.752Z" fill="#447A1B"/>
<path d="M10.4935 28.99C6.74847 25.473 1.66797 20.8515 1.66797 20.8515C1.66797 20.8515 6.67347 25.6925 10.475 29.325C21.718 22.833 28.361 13.1625 28.361 13.1625C28.361 13.1625 20.942 23.256 10.4935 28.99Z" fill="#447A1B"/>
<path d="M10.546 28.044C6.78447 24.6255 1.85547 20.1355 1.85547 20.1355C1.85547 20.1355 6.80697 24.8685 10.526 28.4095C21.66 22.178 28.2785 12.2275 28.2785 12.2275C28.2785 12.2275 21.134 22.327 10.546 28.044Z" fill="#447A1B"/>
<path d="M10.585 27.332C7.70295 24.702 4.82195 22.071 1.93945 19.438C9.09895 15.3925 15.1415 9.87499 19.572 3.33899C22.4545 5.96899 25.3365 8.59949 28.2185 11.233C23.7875 17.7705 17.745 23.2865 10.585 27.332Z" fill="#92C932"/>
<path d="M9.90155 25.525C7.99505 23.785 6.09005 22.0455 4.18555 20.3055C4.30205 20.237 4.41905 20.1675 4.53555 20.0985C4.92105 19.8715 4.97305 19.444 4.65755 19.157C4.56355 19.069 4.46705 18.9821 4.37305 18.8951C10.133 15.3521 15.095 10.8215 18.9765 5.56105C19.071 5.64805 19.167 5.73505 19.2615 5.82155C19.577 6.10905 20.0435 6.06105 20.2935 5.70955C20.3685 5.60305 20.4455 5.49505 20.52 5.38855C22.4255 7.12855 24.3315 8.86905 26.237 10.608C26.162 10.7145 26.0855 10.821 26.01 10.9285C25.76 11.28 25.806 11.7965 26.122 12.085C26.217 12.173 26.3125 12.2605 26.4075 12.3455C22.5275 17.606 17.564 22.1376 11.8035 25.6826C11.708 25.5946 11.613 25.5071 11.5185 25.4191C11.204 25.1331 10.6365 25.0901 10.253 25.3186C10.135 25.3881 10.0185 25.4565 9.90155 25.525ZM5.42005 20.3785C6.96805 21.7915 8.51655 23.2065 10.0645 24.6195C10.6565 24.4205 11.3515 24.467 11.878 24.755C17.1495 21.411 21.7305 17.2265 25.3955 12.411C25.08 11.9315 25.0275 11.2965 25.246 10.7565C23.697 9.34255 22.1485 7.92855 20.6005 6.51455C20.1735 6.86605 19.5945 6.92255 19.1075 6.66955C15.4425 11.484 10.8615 15.6685 5.58805 19.0135C5.86505 19.4585 5.80355 19.988 5.42005 20.3785Z" fill="#529320"/>
<path d="M16.3587 13.3715C17.1272 13.3715 17.8067 13.636 18.3792 14.1595C19.2267 14.9335 19.4857 15.83 19.1272 16.753C18.6377 18.015 17.1582 18.9675 15.6857 18.9675C14.8402 18.9675 14.0467 18.651 13.3907 18.0525C12.6457 17.3725 12.4387 16.5875 12.7747 15.7215C13.2852 14.404 14.8602 13.3715 16.3587 13.3715ZM16.3587 12.6215C13.2727 12.622 10.2342 16.184 12.8852 18.606C13.7432 19.389 14.7282 19.7175 15.6862 19.7175C18.8347 19.7175 21.7027 16.1785 18.8852 13.606C18.1272 12.913 17.2407 12.6215 16.3587 12.6215Z" fill="#529320"/>
<path d="M10.8792 23.3185C10.0197 22.534 11.5327 21.273 12.3917 22.058C13.3182 22.904 11.8057 24.164 10.8792 23.3185Z" fill="#7AB51D"/>
<path d="M7.33304 20.053C6.47304 19.268 7.98604 18.007 8.84454 18.7925C9.77054 19.638 8.25904 20.8985 7.33304 20.053Z" fill="#7AB51D"/>
<path d="M22.6754 12.9375C21.5939 12.5065 22.5634 10.7935 23.6444 11.224C24.8104 11.6885 23.8404 13.402 22.6754 12.9375Z" fill="#7AB51D"/>
<path d="M19.1405 9.57298C18.039 9.19698 18.92 7.43748 20.0215 7.81248C21.209 8.21548 20.328 9.97598 19.1405 9.57298Z" fill="#7AB51D"/>
<path d="M10.6479 13.3265C10.6479 13.3265 14.443 17.7615 19.2799 21.235C20.5764 20.229 21.5329 19.185 21.5329 19.185C18.2839 15.244 12.8544 11.313 12.8544 11.313C11.8254 12.2085 10.6479 13.3265 10.6479 13.3265Z" fill="#ECF1F5"/>
<path d="M19.2802 21.2355L10.6482 13.3265L10.1162 13.778L18.7252 21.7035L19.2802 21.2355Z" fill="#FFE12C"/>
<path d="M21.5325 19.1855L22.0465 18.6715L13.389 10.788L12.854 11.3135L21.5325 19.1855Z" fill="#FFE12C"/>
<path fill-rule="evenodd" clip-rule="evenodd" d="M30.9998 30.6775C27.7573 31.4635 26.2853 29.884 26.2853 29.884C23.6308 31.1435 21.5808 28.6445 21.5808 28.6445C16.0693 27.478 19.5873 21.8315 17.0503 18.961C26.4593 14.9955 25.4923 26.336 30.9998 30.6775Z" fill="url(#paint0_linear_37_776)"/>
<path fill-rule="evenodd" clip-rule="evenodd" d="M22.7183 25.2695C25.2708 29.9225 28.5258 31.1985 30.9998 30.6775C26.6413 32.1565 24.1548 28.229 22.7183 25.2695Z" fill="#B3C2C6"/>
<path fill-rule="evenodd" clip-rule="evenodd" d="M19.9727 23.7045C20.8962 29.128 23.6192 30.6395 26.1472 29.947C22.8487 31.589 19.9692 27.779 19.9727 23.7045Z" fill="#B3C2C6"/>
<path fill-rule="evenodd" clip-rule="evenodd" d="M18.1225 22.3485C18.1415 26.0655 18.9475 27.79 21.5445 28.6375C17.9715 28.1845 17.975 25.417 18.1225 22.3485Z" fill="#B3C2C6"/>
<path fill-rule="evenodd" clip-rule="evenodd" d="M13.0398 14.95C10.1688 12.413 4.52084 15.9275 3.35534 10.4185C3.35534 10.4185 0.856842 8.3685 2.11534 5.715C2.11534 5.715 0.535842 4.245 1.32184 1C5.66484 6.5095 17.0043 5.5425 13.0398 14.95Z" fill="url(#paint1_linear_37_776)"/>
<path fill-rule="evenodd" clip-rule="evenodd" d="M6.73101 9.2815C2.07851 6.73 0.802007 3.4755 1.32201 1C-0.156993 5.3595 3.77251 7.8445 6.73101 9.2815Z" fill="#B3C2C6"/>
<path fill-rule="evenodd" clip-rule="evenodd" d="M8.29409 12.0275C2.87309 11.1035 1.36109 8.38154 2.05209 5.85254C0.411089 9.15204 4.22059 12.031 8.29409 12.0275Z" fill="#B3C2C6"/>
<path fill-rule="evenodd" clip-rule="evenodd" d="M9.65228 13.8789C5.93478 13.8589 4.20928 13.0519 3.36328 10.4554C3.81528 14.0279 6.58328 14.0254 9.65228 13.8789Z" fill="#B3C2C6"/>
</g>
<defs>
<linearGradient id="paint0_linear_37_776" x1="17.0505" y1="24.5149" x2="30.9998" y2="24.5149" gradientUnits="userSpaceOnUse">
<stop stop-color="#ECF1F5"/>
<stop offset="0.413" stop-color="#E9EEF3"/>
<stop offset="0.7203" stop-color="#E0E6EB"/>
<stop offset="0.9932" stop-color="#D0D8DD"/>
<stop offset="1" stop-color="#CFD8DD"/>
</linearGradient>
<linearGradient id="paint1_linear_37_776" x1="1.10234" y1="7.9751" x2="13.867" y2="7.9751" gradientUnits="userSpaceOnUse">
<stop stop-color="#CFD8DD"/>
<stop offset="0.0068" stop-color="#D0D8DD"/>
<stop offset="0.2797" stop-color="#E0E6EB"/>
<stop offset="0.587" stop-color="#E9EEF3"/>
<stop offset="1" stop-color="#ECF1F5"/>
</linearGradient>
</defs>
</svg>
