<svg width="32" height="32" viewBox="0 0 32 32" fill="none" xmlns="http://www.w3.org/2000/svg">
<path d="M10.382 4.65554C10.2945 3.89504 15.1885 6.84154 15.3865 11.901C15.403 12.226 13.108 11.927 11.706 10.798C11.7055 10.798 10.695 7.42004 10.382 4.65554Z" fill="#CFD8DD"/>
<path d="M10.752 5.68998C10.702 5.15598 13.972 7.80448 14.054 11.3105C14.0615 11.536 12.517 11.0385 11.5825 10.0845C11.582 10.0845 10.935 7.63198 10.752 5.68998Z" fill="#6E8189"/>
<path d="M7.61865 10.102L9.72365 12.9975C11.4267 12.8045 12.8157 11.4065 13.0177 9.70845L10.1602 7.63745C9.18515 8.19195 7.61865 10.102 7.61865 10.102Z" fill="url(#paint0_radial_37_701)"/>
<path d="M6.22656 8.18896L8.51306 11.333C8.51306 11.333 9.70706 8.99046 11.3486 8.49946L8.23356 6.24146C7.47806 6.73896 6.22656 8.18896 6.22656 8.18896Z" fill="url(#paint1_radial_37_701)"/>
<path d="M4.84912 6.29445L7.27762 9.63445C7.27762 9.63445 8.13062 7.71095 9.64062 7.26245L6.32812 4.86145C5.78512 5.26345 4.84912 6.29445 4.84912 6.29445Z" fill="url(#paint2_radial_37_701)"/>
<path d="M3.48389 4.41594L6.01939 7.90344C6.01939 7.90344 6.88539 6.47594 7.90989 6.00694L4.43789 3.49194C4.09739 3.77094 3.48389 4.41594 3.48389 4.41594Z" fill="url(#paint3_radial_37_701)"/>
<path d="M2.12891 2.55206L4.74091 6.14506C4.74091 6.14506 5.41291 4.96806 6.14841 4.73106L2.56341 2.13306C2.41391 2.26756 2.12891 2.55206 2.12891 2.55206Z" fill="url(#paint4_radial_37_701)"/>
<path d="M3.442 4.359C3.442 4.359 3.748 3.674 4.3595 3.434L1 1L3.442 4.359Z" fill="url(#paint5_radial_37_701)"/>
<path d="M13.7051 7.92205C16.8406 12.3516 23.0811 15.5746 26.7746 12.8146C25.7476 6.51905 18.9681 4.64055 13.7051 7.92205Z" fill="#FA5393"/>
<path d="M16.0054 9.11152C18.5769 14.1685 24.8349 18.7565 29.4914 16.903C29.6374 10.503 22.5074 7.10752 16.0054 9.11152Z" fill="#FF8CBC"/>
<path d="M19.8887 11.478C21.0552 17.0275 25.6457 24.112 30.6252 23.528C31.9052 14.9475 26.6887 11.226 19.8887 11.478Z" fill="#FA5393"/>
<path d="M23.7931 14.9969C22.9126 20.5979 25.3536 25.0694 29.0251 28.3294C33.7931 24.8134 29.0891 15.3844 23.7931 14.9969Z" fill="#FF8CBC"/>
<path d="M15.9449 9.04456C13.2804 13.2011 15.6389 22.8561 15.6389 22.8561C19.4454 23.7026 16.1784 31.0001 18.6864 31.0001C25.8039 31.0001 29.0249 28.3296 29.0249 28.3296C30.1234 18.7951 21.4189 9.39656 15.9449 9.04456Z" fill="url(#paint6_linear_37_701)"/>
<path d="M18.8416 14.0885C13.9341 13.7215 15.6391 22.856 15.6391 22.856C19.4456 23.7025 16.1786 31 18.6866 31C17.7466 25.7835 22.7586 20.9495 18.8416 14.0885Z" fill="url(#paint7_linear_37_701)"/>
<path d="M18.2201 9.91256C17.9691 8.77806 16.7296 4.26506 14.1246 3.00306C13.8096 2.85006 13.5426 8.73156 13.5426 8.73156C10.2996 12.3266 2.13106 20.1146 1.19056 21.2511C0.247557 22.3866 3.11106 25.7526 3.11106 25.7526C3.90706 25.8466 4.89906 26.5201 5.30506 26.8071C6.05506 27.3396 7.87756 25.2796 9.92006 24.8991C17.6066 23.4586 19.1301 20.9186 19.3861 18.5251C19.9831 12.9466 18.2201 9.91256 18.2201 9.91256Z" fill="url(#paint8_linear_37_701)"/>
<path d="M3.1616 22.6919C2.8966 22.8794 2.2496 23.0189 2.0536 22.7654C1.8571 22.5119 2.1886 21.9599 2.4526 21.7734C2.7156 21.5879 3.0896 21.6419 3.2846 21.8949C3.4816 22.1479 3.4261 22.5064 3.1616 22.6919Z" fill="#302C3B"/>
<path d="M8.125 21.3051C8.065 22.4816 7.4715 23.6361 6.56 24.4751C6.0965 24.8911 5.5535 25.2251 4.9675 25.4401C4.3825 25.6591 3.7595 25.7586 3.146 25.7496C4.3145 25.3951 5.3765 24.9001 6.2125 24.1266C6.6335 23.7471 6.9985 23.3091 7.3155 22.8366C7.626 22.3581 7.908 21.8531 8.125 21.3051Z" fill="#302C3B"/>
<path d="M8.36816 17.241C8.36816 17.241 8.83516 16.8975 9.25666 16.9815C9.25666 16.9815 8.67916 17.553 9.11316 18.4405C9.11316 18.4405 9.58216 17.3655 10.3892 17.2995C10.3892 17.2995 9.83716 18.0815 10.5422 18.7945C10.5422 18.7945 10.6902 17.7065 11.7367 17.3805C11.7367 17.3805 11.5897 17.951 12.1007 18.632C12.1007 18.632 11.9432 17.649 12.6577 17.171C13.3752 16.6925 14.1707 16.4305 14.5767 15.2065C14.5767 15.2065 12.8352 16.9855 10.4317 16.4935C9.80816 16.3665 8.87116 16.198 8.36816 17.241Z" fill="#302C3B"/>
<path d="M14.133 3.86999C14.215 3.33899 16.737 6.70549 15.957 10.1245C15.908 10.345 14.0535 9.73399 13.861 8.33349C13.861 8.33349 13.8345 5.79749 14.133 3.86999Z" fill="#99A8AE"/>
<path d="M2.53661 20.783C2.26761 20.9475 2.31561 21.049 2.55161 20.961C2.78861 20.8735 3.94261 20.581 4.03961 21.798C4.03961 21.798 4.10461 22.3425 4.25111 21.802C4.39561 21.259 4.05011 19.858 2.53661 20.783Z" fill="#99A8AE"/>
<path d="M13.6093 7.45154C13.6093 7.45154 12.8833 12.0245 18.5853 15.685C18.5853 15.685 7.87529 13.0685 13.6093 7.45154Z" fill="#FA5393"/>
<path d="M28.4093 19.2675C20.2498 16.395 20.6078 7.78402 17.7483 8.00402C16.2978 15.1885 23.8863 19.012 28.4093 19.2675Z" fill="#FA5393"/>
<defs>
<radialGradient id="paint0_radial_37_701" cx="0" cy="0" r="1" gradientUnits="userSpaceOnUse" gradientTransform="translate(10.3683 10.3519) rotate(-44.9554) scale(2.27151 13.629)">
<stop stop-color="#C28FEF"/>
<stop offset="0.6667" stop-color="#B357E6"/>
</radialGradient>
<radialGradient id="paint1_radial_37_701" cx="0" cy="0" r="1" gradientUnits="userSpaceOnUse" gradientTransform="translate(8.5541 8.54131) rotate(-44.9554) scale(1.97569 11.8541)">
<stop stop-color="#75D6FF"/>
<stop offset="0.1023" stop-color="#67CDF8"/>
<stop offset="0.6667" stop-color="#1A9ED6"/>
</radialGradient>
<radialGradient id="paint2_radial_37_701" cx="0" cy="0" r="1" gradientUnits="userSpaceOnUse" gradientTransform="translate(7.01119 7.00207) rotate(-44.9554) scale(1.87208 11.2324)">
<stop stop-color="#78FFC7"/>
<stop offset="0.0538" stop-color="#72F9C3"/>
<stop offset="0.7212" stop-color="#25B399"/>
</radialGradient>
<radialGradient id="paint3_radial_37_701" cx="0" cy="0" r="1" gradientUnits="userSpaceOnUse" gradientTransform="translate(5.45798 5.45019) rotate(-44.9554) scale(1.7805 10.683)">
<stop stop-color="#DCFF91"/>
<stop offset="0.1798" stop-color="#C5EF74"/>
<stop offset="0.6667" stop-color="#88C427"/>
</radialGradient>
<radialGradient id="paint4_radial_37_701" cx="0" cy="0" r="1" gradientUnits="userSpaceOnUse" gradientTransform="translate(3.89409 3.88995) rotate(-44.9554) scale(1.70431 10.2258)">
<stop stop-color="#FFED80"/>
<stop offset="0.2612" stop-color="#FFD24C"/>
<stop offset="0.6667" stop-color="#FFAA00"/>
</radialGradient>
<radialGradient id="paint5_radial_37_701" cx="0" cy="0" r="1" gradientUnits="userSpaceOnUse" gradientTransform="translate(2.45162 2.44949) rotate(-44.9554) scale(1.52175 9.1305)">
<stop stop-color="#FF8E80"/>
<stop offset="0.2727" stop-color="#F44C45"/>
<stop offset="0.6061" stop-color="#E80000"/>
</radialGradient>
<linearGradient id="paint6_linear_37_701" x1="21.8973" y1="31.0001" x2="21.8973" y2="18.9467" gradientUnits="userSpaceOnUse">
<stop offset="0.2545" stop-color="#CFD8DD"/>
<stop offset="0.6086" stop-color="#D7DFE3"/>
<stop offset="1" stop-color="#E6EBEF"/>
</linearGradient>
<linearGradient id="paint7_linear_37_701" x1="15.8671" y1="21.2578" x2="20.735" y2="23.5079" gradientUnits="userSpaceOnUse">
<stop stop-color="#302C3B" stop-opacity="0.2"/>
<stop offset="1" stop-color="#302C3B" stop-opacity="0"/>
</linearGradient>
<linearGradient id="paint8_linear_37_701" x1="13.3048" y1="27.3721" x2="10.5645" y2="18.8146" gradientUnits="userSpaceOnUse">
<stop offset="0.2545" stop-color="#CFD8DD"/>
<stop offset="0.6086" stop-color="#D7DFE3"/>
<stop offset="1" stop-color="#E6EBEF"/>
</linearGradient>
</defs>
</svg>
