<svg width="32" height="32" viewBox="0 0 32 32" fill="none" xmlns="http://www.w3.org/2000/svg">
<path d="M16 31C24.2843 31 31 24.2843 31 16C31 7.71573 24.2843 1 16 1C7.71573 1 1 7.71573 1 16C1 24.2843 7.71573 31 16 31Z" fill="url(#paint0_linear_37_677)"/>
<path d="M18.0615 10.407C16.883 11.0095 15.1155 11.0095 13.937 10.407C12.678 9.74654 11.141 9.32254 9.29998 9.15754C7.50348 8.99604 3.69248 9.00154 1.78648 9.68854C1.56748 9.76654 1.35348 9.86804 1.14498 9.97704C1.02798 10.0385 1.00398 10.083 1.00398 10.307V10.5965C1.00398 11.1405 0.937482 10.9295 1.31748 11.156C2.05748 11.5995 2.47798 12.7505 2.70298 14.335C3.02398 16.6455 4.13048 18.0925 5.92948 18.784C7.59848 19.4235 9.46498 19.402 11.1215 18.7265C12.027 18.356 12.8215 17.7705 13.4535 16.82C14.5625 15.154 14.23 14.1145 14.801 12.6835C15.299 11.434 16.6985 11.434 17.1975 12.6835C17.77 14.1145 17.4375 15.154 18.545 16.82C19.176 17.77 19.972 18.3555 20.878 18.7265C22.5335 19.4025 24.4 19.424 26.069 18.784C27.8675 18.092 28.9755 16.6455 29.296 14.335C29.5205 12.7505 29.9415 11.5995 30.6815 11.156C31.0615 10.9295 30.995 11.141 30.995 10.5965V10.307C30.995 10.083 30.9705 10.038 30.854 9.97704C30.6465 9.86804 30.4305 9.76654 30.213 9.68854C28.3065 9.00154 24.496 8.99554 22.7 9.15754C20.858 9.32254 19.32 9.74654 18.0615 10.407Z" fill="url(#paint1_linear_37_677)"/>
<path opacity="0.3" d="M18.8489 11.4215C18.1319 12.0575 18.7829 16.661 20.9589 17.513C22.3164 18.0445 24.9854 18.366 26.8299 16.74C28.3404 15.4085 28.6669 11.377 27.5929 10.7505C26.4129 10.0615 20.3819 10.0615 18.8489 11.4215Z" fill="url(#paint2_linear_37_677)"/>
<path opacity="0.3" d="M13.2449 11.4231C13.9619 12.0591 13.3109 16.6631 11.1354 17.5141C9.7774 18.0456 7.1084 18.3681 5.2634 16.7411C3.7529 15.4101 3.4269 11.3791 4.5004 10.7516C5.6804 10.0626 11.7114 10.0626 13.2449 11.4231Z" fill="url(#paint3_linear_37_677)"/>
<path d="M12.3293 25.0015C16.2043 26.0045 20.9658 24.4935 22.9758 21.3495C23.1403 21.0915 22.8843 20.818 22.6258 21.0225C20.5253 22.6805 16.0663 23.915 12.8013 22.9605C11.5513 22.5945 11.0078 24.659 12.3293 25.0015Z" fill="#1A1626"/>
<defs>
<linearGradient id="paint0_linear_37_677" x1="16" y1="31" x2="16" y2="1.00025" gradientUnits="userSpaceOnUse">
<stop stop-color="#FF9500"/>
<stop offset="0.0934" stop-color="#FF9F03"/>
<stop offset="0.4902" stop-color="#FFC710"/>
<stop offset="0.8062" stop-color="#FFDF17"/>
<stop offset="1" stop-color="#FFE81A"/>
</linearGradient>
<linearGradient id="paint1_linear_37_677" x1="16.0002" y1="19.249" x2="16.0002" y2="9.07084" gradientUnits="userSpaceOnUse">
<stop stop-color="#1A1626"/>
<stop offset="0.4251" stop-color="#1F1B2B"/>
<stop offset="0.9255" stop-color="#2D2938"/>
<stop offset="1" stop-color="#302C3B"/>
</linearGradient>
<linearGradient id="paint2_linear_37_677" x1="23.3969" y1="17.9443" x2="23.3969" y2="10.2966" gradientUnits="userSpaceOnUse">
<stop stop-color="#708694"/>
<stop offset="1" stop-color="#C2DFF0"/>
</linearGradient>
<linearGradient id="paint3_linear_37_677" x1="8.6969" y1="17.9464" x2="8.6969" y2="10.2982" gradientUnits="userSpaceOnUse">
<stop stop-color="#708694"/>
<stop offset="1" stop-color="#C2DFF0"/>
</linearGradient>
</defs>
</svg>
