<svg width="30" height="30" viewBox="0 0 30 30" fill="none" xmlns="http://www.w3.org/2000/svg">
<path d="M25.4031 14.3362H4.59766V26.2884H25.4031V14.3362Z" fill="url(#paint0_linear_37_634)"/>
<path d="M29.0625 28.1836H0.9375V29.0625H29.0625V28.1836Z" fill="#CFD8DD"/>
<path d="M27.4219 26.4258H2.57812V27.3047H27.4219V26.4258Z" fill="#CFD8DD"/>
<path d="M28.2422 27.3047H1.75781V28.1836H28.2422V27.3047Z" fill="#E6EBEF"/>
<path d="M26.6016 25.5469H3.39844V26.4258H26.6016V25.5469Z" fill="#E6EBEF"/>
<path d="M27.7441 13.0172H2.25586V13.8971H27.7441V13.0172Z" fill="#99A8AE"/>
<path d="M29.0625 13.8966H0.9375V14.7765H29.0625V13.8966Z" fill="#CFD8DD"/>
<path d="M14.9944 2.2688L0.9375 9.95442L2.115 11.7141L14.9944 3.13645L27.885 11.7141L29.0625 9.95442L14.9944 2.2688Z" fill="#99A8AE"/>
<path d="M14.9944 0.9375L0.9375 9.95438V11.2739L14.9944 2.25656L29.0625 11.2739V9.95438L14.9944 0.9375Z" fill="#CFD8DD"/>
<path d="M14.9944 3.13635L0.9375 12.1537V13.0335H29.0625V12.1537L14.9944 3.13635Z" fill="#CFD8DD"/>
<path d="M14.9945 4.4447L3.31982 12.1538H26.6804L14.9945 4.4447Z" fill="#E6EBEF"/>
<path d="M6.79688 15.5612H3.98438V24.7266H6.79688V15.5612Z" fill="#E6EBEF"/>
<path d="M7.14844 24.7266H3.63281V25.5469H7.14844V24.7266Z" fill="#CFD8DD"/>
<path d="M7.14844 14.7656H3.63281V15.5611H7.14844V14.7656Z" fill="#CFD8DD"/>
<path d="M4.59701 15.9281H4.26514V24.3839H4.59701V15.9281Z" fill="#C8D0D6"/>
<path d="M6.51547 15.9281H6.18359V24.3839H6.51547V15.9281Z" fill="#C8D0D6"/>
<path d="M5.87584 15.9281H5.54443V24.3839H5.87584V15.9281Z" fill="#C8D0D6"/>
<path d="M5.23619 15.9281H4.90479V24.3839H5.23619V15.9281Z" fill="#C8D0D6"/>
<path d="M13.2026 15.5612H10.3901V24.7557H13.2026V15.5612Z" fill="#E6EBEF"/>
<path d="M13.5542 24.7561H10.0386V25.5474H13.5542V24.7561Z" fill="#CFD8DD"/>
<path d="M13.5542 14.7656H10.0386V15.5611H13.5542V14.7656Z" fill="#CFD8DD"/>
<path d="M11.0028 15.9281H10.6714V24.3839H11.0028V15.9281Z" fill="#C8D0D6"/>
<path d="M12.9217 15.9281H12.5903V24.3839H12.9217V15.9281Z" fill="#C8D0D6"/>
<path d="M12.2821 15.9281H11.9502V24.3839H12.2821V15.9281Z" fill="#C8D0D6"/>
<path d="M11.6429 15.9281H11.311V24.3839H11.6429V15.9281Z" fill="#C8D0D6"/>
<path d="M19.6094 15.5612H16.7969V24.7557H19.6094V15.5612Z" fill="#E6EBEF"/>
<path d="M19.9609 24.7561H16.4453V25.5474H19.9609V24.7561Z" fill="#CFD8DD"/>
<path d="M19.9609 14.7656H16.4453V15.5611H19.9609V14.7656Z" fill="#CFD8DD"/>
<path d="M17.4095 15.9281H17.0781V24.3839H17.4095V15.9281Z" fill="#C8D0D6"/>
<path d="M19.328 15.9281H18.9966V24.3839H19.328V15.9281Z" fill="#C8D0D6"/>
<path d="M18.6888 15.9281H18.3569V24.3839H18.6888V15.9281Z" fill="#C8D0D6"/>
<path d="M18.0492 15.9281H17.7173V24.3839H18.0492V15.9281Z" fill="#C8D0D6"/>
<path d="M26.0156 15.5612H23.2031V24.7266H26.0156V15.5612Z" fill="#E6EBEF"/>
<path d="M26.3672 24.7266H22.8516V25.5469H26.3672V24.7266Z" fill="#CFD8DD"/>
<path d="M26.3672 14.7656H22.8516V15.5611H26.3672V14.7656Z" fill="#CFD8DD"/>
<path d="M23.8158 15.9281H23.4839V24.3839H23.8158V15.9281Z" fill="#C8D0D6"/>
<path d="M25.7342 15.9281H25.4023V24.3839H25.7342V15.9281Z" fill="#C8D0D6"/>
<path d="M25.0946 15.9281H24.7632V24.3839H25.0946V15.9281Z" fill="#C8D0D6"/>
<path d="M24.4549 15.9281H24.1235V24.3839H24.4549V15.9281Z" fill="#C8D0D6"/>
<defs>
<linearGradient id="paint0_linear_37_634" x1="15.0004" y1="26.2884" x2="15.0004" y2="14.3364" gradientUnits="userSpaceOnUse">
<stop stop-color="#5B666E"/>
<stop offset="0.2385" stop-color="#565F68"/>
<stop offset="0.5791" stop-color="#484C58"/>
<stop offset="0.9795" stop-color="#312E3D"/>
<stop offset="1" stop-color="#302C3B"/>
</linearGradient>
</defs>
</svg>
